<svg xmlns="http://www.w3.org/2000/svg" viewBox="0 0 1003.92 747.96"><defs><style>.cls-1{fill:#4a81cb;}.cls-2{fill:#749fce;}.cls-3{fill:#6fbace;}.cls-4{opacity:0.38;}.cls-5{opacity:0.03;}</style></defs><title>top_bg</title><g id="e4bbe722-77af-4dff-9d23-13f94132c30a"><rect class="cls-1" x="25.88" y="54.96" width="978.04" height="693"/></g><g id="Layer_3" data-name="Layer 3"><ellipse class="cls-2" cx="221" cy="709.69" rx="221" ry="10.5"/><path class="cls-2" d="M81.84,626.49C82,644.28,71.5,650.6,58.45,650.72h-.9q-.91,0-1.8-.06c-11.78-.72-21-7.16-21.16-23.71-.17-17.13,21.51-39,23.14-40.57h0l.09-.09S81.67,608.69,81.84,626.49Z" transform="translate(28.92 58.96)"/><ellipse class="cls-2" cx="725.88" cy="709.69" rx="221" ry="10.5"/><path class="cls-2" d="M586.73,626.49c.17,17.79-10.35,24.11-23.39,24.23h-.91q-.9,0-1.8-.06c-11.78-.72-21-7.16-21.15-23.71-.17-17.13,21.5-39,23.13-40.57h0l.1-.09S586.55,608.69,586.73,626.49Z" transform="translate(28.92 58.96)"/><ellipse class="cls-2" cx="394.55" cy="621.31" rx="110.5" ry="5.25"/><path class="cls-2" d="M310.52,550.23c.08,8.9-5.18,12-11.7,12.12h-.45l-.9,0c-5.89-.35-10.5-3.58-10.58-11.85-.08-8.56,10.75-19.48,11.57-20.28h0l.05,0S310.43,541.33,310.52,550.23Z" transform="translate(28.92 58.96)"/><path class="cls-2" d="M292.44,546.93c.12,12.56-7.3,17-16.51,17.11h-.64c-.43,0-.85,0-1.27,0-8.32-.51-14.82-5-14.93-16.73-.12-12.09,15.18-27.5,16.33-28.64h0l.06-.07S292.32,534.37,292.44,546.93Z" transform="translate(28.92 58.96)"/><ellipse class="cls-2" cx="304.59" cy="621.24" rx="60" ry="4.24"/><ellipse class="cls-2" cx="910.89" cy="575.93" rx="85" ry="6"/><path class="cls-2" d="M886.65,492.72l74.07-110.15-73.92,122L887,517q-8.12.06-16.07-.27l3.67-159.32-.1-1.23.14-.24.35-15L793.84,223.08l81,106.5.28,3.18,2.78-120.37L807.86,90.29l70.26,101-.74-249.38V-59l0,.81,4.65,196.55,63.85-79.84-63.64,96.77L883.66,263l58.76-105.08L883.88,278.83l.77,59.87L970.1,192.32,884.91,359.58Z" transform="translate(28.92 58.96)"/><ellipse class="cls-2" cx="716.65" cy="686.84" rx="58.43" ry="4.12"/><path class="cls-2" d="M691,611.21l50.91-75.71-50.81,83.85.11,8.52q-5.58,0-11-.18l2.52-109.51-.07-.85.1-.16.24-10.35-55.76-80.95,55.69,73.21.2,2.18L685,418.52,636.79,334.6,685.08,404l-.5-171.42V232l0,.56,3.19,135.1,43.89-54.87L687.94,379.3l1,74,40.38-72.23L689,464.19l.54,41.15,58.73-100.61-58.55,115Z" transform="translate(28.92 58.96)"/></g><g id="Layer_2" data-name="Layer 2"><rect class="cls-3" x="72.99" y="116.51" width="40.18" height="3.35"/><rect class="cls-3" x="126.56" y="116.51" width="40.18" height="3.35"/><rect class="cls-3" x="204.41" y="147.48" width="40.18" height="3.35"/><rect class="cls-3" x="258.82" y="147.48" width="40.18" height="3.35"/><rect class="cls-3" x="180.97" y="116.51" width="118.03" height="3.35"/><rect class="cls-3" x="72.99" y="147.48" width="118.03" height="3.35"/><rect class="cls-3" x="72.99" y="178.45" width="118.03" height="3.35"/><rect class="cls-3" x="216.96" y="178.45" width="82.03" height="3.35"/><polygon class="cls-3" points="61.69 130.64 47.56 116.51 61.69 102.37 64.52 105.2 53.21 116.51 64.52 127.82 61.69 130.64"/><polygon class="cls-3" points="337.08 195.94 334.25 193.11 345.56 181.8 334.25 170.49 337.08 167.66 351.21 181.8 337.08 195.94"/><rect class="cls-3" x="276.57" y="120.42" width="28.86" height="4" transform="translate(118.37 424.37) rotate(-73.14)"/><g class="cls-4"><rect class="cls-3" x="174.31" y="250.49" width="61.95" height="5.15"/><rect class="cls-3" x="256.92" y="250.49" width="61.95" height="5.15"/><rect class="cls-3" x="376.95" y="298.17" width="61.95" height="5.15"/><rect class="cls-3" x="460.84" y="298.17" width="61.95" height="5.15"/><rect class="cls-3" x="340.81" y="250.49" width="181.99" height="5.15"/><rect class="cls-3" x="174.31" y="298.17" width="181.99" height="5.15"/><rect class="cls-3" x="174.31" y="345.85" width="181.99" height="5.15"/><rect class="cls-3" x="396.31" y="345.85" width="126.49" height="5.15"/><polygon class="cls-3" points="156.9 272.25 135.11 250.49 156.9 228.73 161.26 233.08 143.83 250.49 161.26 267.9 156.9 272.25"/><polygon class="cls-3" points="581.51 372.77 577.15 368.42 594.59 351.01 577.15 333.6 581.51 329.25 603.31 351.01 581.51 372.77"/><rect class="cls-3" x="503.92" y="288.32" width="44.44" height="6.17" transform="translate(123.41 769.19) rotate(-73.12)"/></g><g class="cls-5"><rect class="cls-3" x="100.77" y="423.19" width="70.68" height="5.88"/><rect class="cls-3" x="195.02" y="423.19" width="70.68" height="5.88"/><rect class="cls-3" x="331.97" y="477.59" width="70.68" height="5.88"/><rect class="cls-3" x="427.69" y="477.59" width="70.68" height="5.88"/><rect class="cls-3" x="290.74" y="423.19" width="207.63" height="5.88"/><rect class="cls-3" x="100.77" y="477.59" width="207.63" height="5.88"/><rect class="cls-3" x="100.77" y="532" width="207.63" height="5.88"/><rect class="cls-3" x="354.06" y="532" width="144.31" height="5.88"/><polygon class="cls-3" points="80.91 448.02 56.04 423.19 80.91 398.36 85.88 403.33 65.99 423.19 85.88 443.05 80.91 448.02"/><polygon class="cls-3" points="565.36 562.71 560.39 557.74 580.28 537.88 560.39 518.02 565.36 513.05 590.23 537.88 565.36 562.71"/><rect class="cls-3" x="480.91" y="474.66" width="50.71" height="7.04" transform="translate(-69.42 882.7) rotate(-73.12)"/></g></g></svg>