<svg id="Layer_1" data-name="Layer 1" xmlns="http://www.w3.org/2000/svg" viewBox="0 0 1000 1000"><defs><style>.cls-1{opacity:0.4;}.cls-2{fill:#ccc;}</style></defs><title>bottom-bg</title><g class="cls-1"><rect class="cls-2" x="69.38" y="129.62" width="66.6" height="5.55" transform="translate(-22.76 21.33) rotate(-10.68)"/><rect class="cls-2" x="156.64" y="113.16" width="66.6" height="5.55" transform="translate(-18.2 37.22) rotate(-10.68)"/><rect class="cls-2" x="292.95" y="139.68" width="66.6" height="5.55" transform="matrix(0.98, -0.19, 0.19, 0.98, -20.75, 62.95)"/><rect class="cls-2" x="381.57" y="122.97" width="66.6" height="5.55" transform="translate(-16.12 79.09) rotate(-10.68)"/><rect class="cls-2" x="244.14" y="84.48" width="195.63" height="5.55" transform="translate(-10.25 64.91) rotate(-10.68)"/><rect class="cls-2" x="77.78" y="168.11" width="195.63" height="5.55" transform="translate(-28.63 35.51) rotate(-10.68)"/><rect class="cls-2" x="87.3" y="218.55" width="195.63" height="5.55" transform="translate(-37.82 38.15) rotate(-10.68)"/><rect class="cls-2" x="322.32" y="179.84" width="135.97" height="5.55" transform="translate(-27.09 75.52) rotate(-10.68)"/><polygon class="cls-2" points="55.4 162.33 28.03 143.66 46.71 116.29 52.19 120.03 37.24 141.92 59.13 156.86 55.4 162.33"/><polygon class="cls-2" points="523.99 184.06 518.51 180.32 533.46 158.43 511.56 143.49 515.3 138.01 542.67 156.69 523.99 184.06"/><rect class="cls-2" x="467.66" y="162.31" width="47.84" height="6.63" transform="translate(274.02 636.53) rotate(-83.82)"/></g><g class="cls-1"><rect class="cls-2" x="724.77" y="248.24" width="3.66" height="43.88" transform="translate(346.77 945.96) rotate(-81.06)"/><rect class="cls-2" x="782.57" y="257.34" width="3.66" height="43.88" transform="translate(386.6 1010.73) rotate(-81.06)"/><rect class="cls-2" x="861.3" y="303.96" width="3.66" height="43.88" transform="translate(407.03 1127.89) rotate(-81.06)"/><rect class="cls-2" x="920" y="313.2" width="3.66" height="43.88" transform="translate(447.48 1193.67) rotate(-81.06)"/><rect class="cls-2" x="883.26" y="230.67" width="3.66" height="128.9" transform="translate(455.99 1123.58) rotate(-81.06)"/><rect class="cls-2" x="761.5" y="245.75" width="3.66" height="128.9" transform="translate(338.26 1016.05) rotate(-81.06)"/><rect class="cls-2" x="756.25" y="279.17" width="3.66" height="128.9" transform="translate(300.81 1039.08) rotate(-81.06)"/><rect class="cls-2" x="892.16" y="320.21" width="3.66" height="89.59" transform="translate(394.48 1191.4) rotate(-81.06)"/><polygon class="cls-2" points="690.62 278.3 677.77 260.65 695.42 247.8 697.99 251.33 683.88 261.61 694.15 275.73 690.62 278.3"/><polygon class="cls-2" points="976.64 395.49 974.07 391.95 988.19 381.67 977.91 367.56 981.44 364.98 994.29 382.63 976.64 395.49"/><rect class="cls-2" x="944.84" y="374.69" width="31.52" height="4.37" transform="translate(203.2 1077.68) rotate(-64.2)"/></g><g class="cls-1"><rect class="cls-2" x="197.22" y="513.9" width="63.99" height="5.33" transform="translate(-40.39 19.88) rotate(-4.56)"/><rect class="cls-2" x="282.27" y="507.11" width="63.99" height="5.33" transform="translate(-39.58 26.63) rotate(-4.56)"/><rect class="cls-2" x="409.78" y="546.41" width="63.99" height="5.33" transform="translate(-42.3 36.9) rotate(-4.56)"/><rect class="cls-2" x="496.16" y="539.51" width="63.99" height="5.33" transform="translate(-41.48 43.76) rotate(-4.56)"/><rect class="cls-2" x="368.45" y="495.28" width="187.97" height="5.33" transform="translate(-38.16 38.38) rotate(-4.56)"/><rect class="cls-2" x="200.95" y="558.13" width="187.97" height="5.33" transform="translate(-43.7 25.25) rotate(-4.56)"/><rect class="cls-2" x="204.88" y="607.3" width="187.97" height="5.33" transform="translate(-47.6 25.72) rotate(-4.56)"/><rect class="cls-2" x="433.54" y="591.33" width="130.65" height="5.33" transform="translate(-45.69 41.59) rotate(-4.56)"/><polygon class="cls-2" points="180.97 540.32 156.74 519.67 177.39 495.44 182.24 499.57 165.72 518.96 185.1 535.48 180.97 540.32"/><polygon class="cls-2" points="626.43 609.07 621.58 604.94 638.1 585.55 618.72 569.04 622.85 564.19 647.08 584.84 626.43 609.07"/><rect class="cls-2" x="574.37" y="584.96" width="45.97" height="6.37" transform="translate(-104.5 1046.55) rotate(-77.7)"/></g><g class="cls-1"><rect class="cls-2" x="717.66" y="789.93" width="2.26" height="27.08" transform="translate(-166.85 1418.19) rotate(-82.95)"/><rect class="cls-2" x="753.5" y="794.37" width="2.26" height="27.08" transform="translate(-139.81 1457.65) rotate(-82.95)"/><rect class="cls-2" x="803.02" y="821.53" width="2.26" height="27.08" transform="translate(-123.33 1530.62) rotate(-82.95)"/><rect class="cls-2" x="839.42" y="826.03" width="2.26" height="27.08" transform="translate(-95.86 1570.69) rotate(-82.95)"/><rect class="cls-2" x="815.94" y="775.85" width="2.26" height="79.56" transform="translate(-92.7 1526.39) rotate(-82.95)"/><rect class="cls-2" x="741.14" y="787.64" width="2.26" height="79.56" transform="translate(-170.01 1462.49) rotate(-82.95)"/><rect class="cls-2" x="738.58" y="808.36" width="2.26" height="79.56" transform="translate(-192.82 1478.13) rotate(-82.95)"/><rect class="cls-2" x="822.85" y="830.91" width="2.26" height="55.3" transform="translate(-129.24 1570.91) rotate(-82.95)"/><polygon class="cls-2" points="696.77 809.21 688.48 798.59 699.11 790.3 700.76 792.43 692.26 799.06 698.89 807.56 696.77 809.21"/><polygon class="cls-2" points="875.59 875.68 873.93 873.55 882.43 866.92 875.8 858.43 877.93 856.77 886.21 867.39 875.59 875.68"/><rect class="cls-2" x="855.59" y="863.18" width="19.46" height="2.7" transform="translate(-275.74 1305.16) rotate(-66.09)"/></g><g class="cls-1"><rect class="cls-2" x="110.4" y="861.35" width="32.94" height="2.74" transform="translate(-184.78 48.31) rotate(-12.57)"/><rect class="cls-2" x="153.26" y="851.79" width="32.94" height="2.74" transform="translate(-181.67 57.41) rotate(-12.57)"/><rect class="cls-2" x="221.07" y="862.67" width="32.94" height="2.74" transform="translate(-182.41 72.44) rotate(-12.57)"/><rect class="cls-2" x="264.6" y="852.96" width="32.94" height="2.74" transform="translate(-179.25 81.68) rotate(-12.57)"/><rect class="cls-2" x="196.02" y="835.13" width="96.75" height="2.74" transform="translate(-176.25 73.27) rotate(-12.57)"/><rect class="cls-2" x="115.16" y="879.18" width="96.75" height="2.74" transform="translate(-187.78 56.72) rotate(-12.57)"/><rect class="cls-2" x="120.69" y="903.96" width="96.75" height="2.74" transform="translate(-193.04 58.52) rotate(-12.57)"/><rect class="cls-2" x="236.23" y="881.48" width="67.24" height="2.74" transform="translate(-185.73 79.92) rotate(-12.57)"/><polygon class="cls-2" points="103.98 878.29 90.15 869.5 98.94 855.67 101.7 857.43 94.68 868.5 105.74 875.52 103.98 878.29"/><polygon class="cls-2" points="335.95 881.38 333.18 879.63 340.21 868.56 329.15 861.53 330.9 858.76 344.74 867.55 335.95 881.38"/><rect class="cls-2" x="307.8" y="871.16" width="23.66" height="3.28" transform="translate(-574.62 1126.31) rotate(-85.71)"/></g></svg>